<mxfile host="app.diagrams.net" modified="2024-05-31T22:05:24.812Z" agent="Mozilla/5.0 (Macintosh; Intel Mac OS X 10_15_7) AppleWebKit/537.36 (KHTML, like Gecko) Chrome/124.0.0.0 Safari/537.36" version="24.4.10" etag="blx2xDLM7Zk4e5v8xCN0" type="github">
  <diagram name="ページ1" id="1lxAOurS8qtODkvGohKQ">
    <mxGraphModel>
      <root>
        <mxCell id="0" />
        <mxCell id="1" parent="0" />
      </root>
    </mxGraphModel>
  </diagram>
</mxfile>
